<svg xmlns="http://www.w3.org/2000/svg" width="256" height="256" viewBox="0 0 256 256">
<!-- SVG created with Arrow, by QuiverAI (https://quiver.ai) -->
  <path d="m191.4 100.1v82.61l-3.52 2.37v2.37h-3.52v2.37l-3.52 0.99v2.37h-3.52v2.37h-3.52v2.37h-3.52v2.37h-3.52v2.37h-5.56v1.18h-94.4v-85.79h3.52v-2.37h3.52v-2.37h4.62v-2.37h3.52v-2.37h-2.36v-3.86h-3.52v-3.56h-2.36v-3.56h-2.36v-3.56h-2.36v-5.93h3.52v-3.56h3.52v-2.37h-3.52v-2.37h-3.52v-3.56h-3.52v-2.37h-3.42v-3.56h-3.52v-3.56h-4.07v-21.74h3.42v-6.52h2.46v-4.15h7.59v13.04h2.36v-4.74h6.99v3.56h2.36v2.37h2.36v10.66h3.52v-5.93h-2.93v-14.82h6.13v-2.37h6.99v-3.56h2.36v-4.15h-3.52v-5.93h4.07v-4.15h4.07v-4.15h7.59v2.37h9.15v-10.06h15.22v10.06h12.5v-2.37h7.09v3.56h3.52v3.56h1.76v5.33h-4.07v4.74h2.36v4.15h6.13v2.97h2.83v14.82h-2.93v5.93h6.48v-10.66h2.93v-5.93h7.59v4.74h3.52v-14.82h7.09v4.74h3.42v2.37h2.36v5.34h2.83v18.19h-3.52v3.56h-2.36v2.96h-4.07v3.56h-2.93v4.15h-2.93v2.37h-4.07v3.56h2.93v4.74h2.36v5.93h-2.36v3.56h4.74v1.77l3.52 0.74z" fill="#000"/>
  <path d="m188.9 99.92v82.22l-2.83 1.77v2.37h-3.52v2.37h-3.52v2.37h-3.52v2.37h-3.51v2.37h-3.52v2.37h-3.52v2.37h-5.06v-81.26h4.62v-2.37h4.12v-2.37h3.52v-2.37h4.07v-2.37h4.12v-2.37h4.12v-2.37h2.83v-2.96h-4.64v-3.56h4.64v0.74l1.6 0.68z" fill="#1D2022"/>
  <path d="m67.98 119.2h91.92v83.43h-93.09l1.17-83.43z" fill="#000"/>
  <path d="m70.34 122.2h87.2v78.09h-87.2v-78.09z" fill="#42515A"/>
  <path d="m133.5 212.7h57.92v37.27h-57.92v-37.27z" fill="#000"/>
  <path d="m136.9 216.3h51.57v30.75h-51.57v-30.75z" fill="#5C686D"/>
  <path d="m140.4 219.3h8.18v13.46h-8.18v-13.46z" fill="#000"/>
  <path d="m151 219.3h3.52v13.46h-3.52v-13.46z" fill="#000"/>
  <path d="m158 219.3h9.35v13.46h-9.35v-13.46z" fill="#000"/>
  <path d="m171.1 219.3h9.35v13.46h-9.35v-13.46z" fill="#000"/>
  <path d="m182.7 219.3h3.52v13.46h-3.52v-13.46z" fill="#000"/>
  <path d="m143.4 221.6h2.93v7.56h-2.93v-7.56z" fill="#5C686D"/>
  <path d="m161.5 221.6h2.93v7.56h-2.93v-7.56z" fill="#5C686D"/>
  <path d="m174.6 221.6h2.93v7.56h-2.93v-7.56z" fill="#5C686D"/>
  <path d="m140.4 235.1h8.18v10.06h-8.18v-10.06z" fill="#000"/>
  <path d="m151 235.1h3.52v10.06h-3.52v-10.06z" fill="#000"/>
  <path d="m158 235.1h9.35v10.06h-9.35v-10.06z" fill="#000"/>
  <path d="m171.1 235.1h9.35v10.06h-9.35v-10.06z" fill="#000"/>
  <path d="m182.7 235.1h3.52v10.06h-3.52v-10.06z" fill="#000"/>
  <path d="m143.4 237.5h2.93v5.33h-2.93v-5.33z" fill="#5C686D"/>
  <path d="m161.5 237.5h2.93v4.74h-2.93v-4.74z" fill="#5C686D"/>
  <path d="m174.6 237.5h2.93v4.74h-2.93v-4.74z" fill="#5C686D"/>
  <path d="m179.7 102.1-4.07 2.37v3.56h4.12v-2.37h3.52v-3.56h-3.57z" fill="#080B0D"/>
  <path d="m170.9 111v2.96h-3.52v2.37h-4.12v-2.37h3.52v-2.96h4.12z" fill="#2E363B"/>
  <path d="m122.1 8.26h11.42v8.69h14.61v-2.37h5.14v3.56h3.52v4.15h1.76v2.96h-4.07v5.34h2.36v4.15h6.13v2.37h2.16v11.85h-6.48v3.56h-5.14v-4.74h-6.48v2.97h-3.52v-5.34h3.52v-11.85h-2.93v-4.15h-5.56v-2.97h-16.39v2.37h-6.13v2.97h-3.52v3.56h-2.93v11.25h-3.52v-11.85h2.93v-4.74h4.64v-3.56h8.53v-2.97h13.69v-2.37h-15.8v1.78h-10.87v-4.74h-4.64v2.96h-3.53v4.15h-2.93v2.37h3.52v5.94h-2.36v2.96h-6.48v12.44h5.55v3.56h5.14v-4.15h6.48v2.38h2.93v-14.23h3.52v-4.74h4.07v-2.37h13.1v2.96h4.07v4.15h3.52v12.44h-4.64v-4.74h-7.59v-1.77h-4.64v1.77h-4.07v4.15h-4.64v2.96h-4.07v-2.37h-6.99v4.15h-8.18v6.52h-8.75v-10.07h2.83v-11.26h6.99v-4.15h2.36v-5.93h-2.93v-2.97h3.52v-4.74h3.52v-4.15h4.64v2.37h10.47v-10.47h3.14z" fill="#A94926"/>
  <path d="m65.61 34.34h2.36v14.82h2.93v5.34h1.76v-10.07h4.07v4.15h2.93v2.97h2.36v10.66h-3.53v4.15h-4.07v2.96h-5.55v-3.56h-4.64v-2.37h-6.48v-22.92h2.93v-3.56h2.93v-2.57h2z" fill="#F15A12"/>
  <path d="m188.8 34.34h-1.27v14.82h-2.93v5.34h-1.76v-10.07h-4.07v4.15h-2.93v2.97h-2.36v10.66h3.53v4.15h4.07v2.96h5.55v-3.56h5.24v-2.37h6.48v-18.96h-1.76v-5.93h-2.93v-1.78h-2.93v-2.38h-1.93z" fill="#F15A12"/>
  <path d="m60.22 62.21h4.64v3.56h3.52v2.96h2.93v3.56h2.93v2.97h4.07v2.37h4.07v1.77h4.07v2.37h-5.24v2.37h-5.14v4.15h-2.93v2.97h2.36v5.33h2.36v4.15h2.93v3.56h3.52v-9.27h-2.36v-5.34h7.59v-2.96h2.93v-2.97h-3.52v-4.15h-4.07v-2.37h-3.52v-4.15h-2.93v-7.56h4.07v-2.96h-5.55v3.56h-3.52v2.96h-6.14v-3.56h-4.64v-2.37h-2.43v-0.95z" fill="#F15A12"/>
  <path d="m195.4 62.21h-2.93v2.96h-2.93v2.97h-4.07v4.15h-2.93v2.97h-4.07v2.37h-4.64v1.77h-4.65v2.97h4.65v1.77h5.55v4.15h3.52v2.97h-2.36v4.15h-2.36v4.15h-2.93v4.15h-3.52v-8.68h2.36v-5.34h-6.99v-2.96h-3.52v-2.97h4.07v-4.15h4.07v-2.37h4.64v-4.15h2.93v-7.56h-4.07v-2.96h4.64v3.56h4.07v2.96h4.64v-3.56h4.64v-2.37h2.19v-0.95z" fill="#F15A12"/>
  <path d="m89.9 59.83h6.48v-3.56h8.18v-4.15h6.99v1.77h5.24v-4.15h6.48v-5.33h2.93v5.93h6.48v-2.96h4.64v2.96h5.24v-2.37h4.64v4.74h6.48v-1.77h4.07v5.33h8.18v3.56h6.48v5.34h-3.52v4.74h4.64v4.75h-5.24v3.56h-4.64v4.74h-4.07v3.56h-14.22v2.97h-31.75v-2.37h-11.48v-3.56h-6.48v-4.15h-5.24v-5.34h-4.07v-5.34h3.52v-4.74h-4.64v-4.15h4.68v-0.01z" fill="#F15A12"/>
  <path d="m114.8 219.3h4.64v4.15h3.52v4.74h4.07v3.56h-3.52v3.56h-2.93v2.96h-2.93v2.37h-1.76v-5.93h-17.6v-2.37h-3.52v-3.56h-2.93v-18.74h14.8v15.97h8.64v-6.71h-0.48z" fill="#000"/>
  <path d="m94.18 212.4h10.28v15.38h10.87v2.97h-17.6v-2.37h-3.52l-0.03-15.98z" fill="#202225"/>
  <path d="m103.9 133.3h23.6v4.15h3.52v3.56h4.64v12.44h-10.28v-5.93h-2.46v-2.97h-14.21v2.97h-2.93v26.67h2.93v2.37h12.5v-2.96h2.36v-4.74h12.5v11.25h-2.36v4.15h-3.52v3.56h-3.52v0.84h-23v-2.96h-4.07v-3.56h-3.52v-4.74h-3.52v-26.09h2.36v-8.14h3.52v-5.33h4.07v-4.54h1.39z" fill="#3871F2"/>
  <path d="m105.1 137.4h21.26v4.15h3.52v3.56h5.55v5.93h-8.18v-4.15h-2.93v-2.97h-16.39v3.56h-3.52v26.08h3.52v4.15h15.22v-4.15h2.93v-3.56h9.35v7.56h-2.93v3.56h-3.52v4.15h-24.19v-2.96h-4.07v-4.74h-3.52v-4.15h-3.52v-21.74h2.93v-7.56h3.53v-4.15h4.96v-2.57z" fill="#9AF1FF"/>
  <path d="m105.4 98.49h44.02v13.64h4.64v-3.56h2.36v-3.56h2.93v-3.56h3.53v-8.14h-3.53v-3.56h-4.07v5.34h-2.93v2.37h-49.31v-2.37h-3.52v-5.34h-4.07v3.56h-2.93v7.56h4.07v3.56h2.93v4.15h3.52v3.56h2.36v-13.65z" fill="#171A1B"/>
  <path d="m114.7 75.26h5.56v2.37h3.52v6.96h-2.36v2.97h-6.13v-2.37h-2.36v-6.97h1.77v-2.96z" fill="#000"/>
  <path d="m133.1 75.26h4.07v2.37h4.07v6.96h-1.76v2.97h-5.55v-2.37h-2.93v-6.97h2.1v-2.96z" fill="#000"/>
  <path d="m116.5 75.85h2.36v4.74h-2.36v-4.74z" fill="#FEFFFE"/>
  <path d="m133.6 75.85h2.93v4.16h-2.93v-4.16z" fill="#FEFFFE"/>
  <path d="m115.5 36.52h2.93v-2.96h15.22v2.37h4.07v9.08h-4.07v-2.96h-9.35v2.37h-8.8v-7.9z" fill="#FEFFFE"/>
  <path d="m77.26 66.36h3.52v5.93h-3.52v-5.93z" fill="#FEFFFE"/>
  <path d="m82.49 65.17h2.93v5.34h-2.93v-5.34z" fill="#FEFFFE"/>
  <path d="m171.1 65.17h3.52v5.34h-3.52v-5.34z" fill="#FEFFFE"/>
  <path d="m175.8 66.36h2.93v4.74h-2.93v-4.74z" fill="#FEFFFE"/>
  <path d="m84.85 90.87h3.52v6.39h-3.52v-6.39z" fill="#FEFFFE"/>
  <path d="m167.6 90.87h3.52v6.39h-3.52v-6.39z" fill="#FEFFFE"/>
  <path d="m156.5 92.05h2.93v8.14h-2.93v-8.14z" fill="#F15A12"/>
  <path d="m95.11 92.64h2.93v8.14h-2.93v-8.14z" fill="#F15A12"/>
</svg>